<svg xmlns="http://www.w3.org/2000/svg" width="191" height="48" viewBox="0 0 191 48"><title>dark</title><path fill="#f8f7f3" fill-rule="nonzero" d="M81.507 25.293h11.398c-.133 6.258-4.109 9.79-9.852 9.79-6.362 0-10.514-5.141-10.514-12.829 0-7.643 4.064-12.828 10.293-12.828 4.904 0 7.908 2.592 9.277 6.436h5.964c-1.855-7.017-7.245-11.13-15.24-11.13-9.5 0-16.214 6.973-16.214 17.522 0 10.727 7.068 17.522 15.506 17.522 6.848 0 10.294-4.515 11.619-8.895v8.358h4.815V20.511H81.507zm30.16-10.682c-5.832 0-9.896 2.994-10.47 7.732h5.566c.31-2.011 1.944-3.799 4.904-3.799 3.226 0 4.819 2.161 4.9 4.874l.003.311v.313l-6.786.72c-4.4.486-9.383 1.797-9.383 7.191 0 4.56 3.623 7.823 8.129 7.823 4.55 0 6.583-2.146 8.085-5.32v4.783h5.478V23.863c0-4.917-3.093-9.252-10.426-9.252m-1.016 21.633c-2.519 0-4.64-1.564-4.64-4.29 0-3.13 3.27-3.576 6.274-3.934l4.285-.447v1.43c0 4.023-1.988 7.241-5.92 7.241m19.999 2.995V5.27h-5.523v33.97zm8.866 0V5.27h-5.522v33.97zm13.946.537c7.378 0 12.017-5.14 12.017-12.605 0-7.42-4.639-12.56-12.017-12.56-7.333 0-11.972 5.14-11.972 12.56 0 7.464 4.639 12.605 11.972 12.605m0-3.934c-4.064 0-6.361-3.352-6.361-8.671 0-5.275 2.297-8.627 6.361-8.627 4.109 0 6.362 3.352 6.362 8.627 0 5.319-2.253 8.671-6.362 8.671m27.554-21.231c-4.33 0-7.069 2.994-8.173 6.213v-5.677h-5.478V48h5.478V34.099c1.37 3.308 4.55 5.677 8.173 5.677 5.831 0 9.984-5.275 9.984-12.605s-4.197-12.56-9.984-12.56m-1.988 21.231c-4.065 0-6.362-3.352-6.362-8.671 0-5.275 2.297-8.627 6.362-8.627 4.108 0 6.361 3.352 6.361 8.627 0 5.319-2.253 8.671-6.361 8.671M33.74 2.986l.088.05a22.144 22.144 0 0 1 .355 38.248l-.443.258a22.67 22.67 0 0 1-22.111.213l-.47-.264a22.144 22.144 0 0 1-.355-38.247l.443-.258a22.67 22.67 0 0 1 22.493 0M22.226 5.128 7.498 13.696v17.136L22.226 39.4l14.728-8.568V13.696z"/></svg>